<svg xmlns="http://www.w3.org/2000/svg" viewBox="0 0 360 360">
  <rect width="360" height="360" rx="28" fill="#fff"/>
  <rect x="28" y="28" width="82" height="82" rx="8" fill="#111827"/>
  <rect x="48" y="48" width="42" height="42" rx="5" fill="#fff"/>
  <rect x="62" y="62" width="14" height="14" fill="#111827"/>
  <rect x="250" y="28" width="82" height="82" rx="8" fill="#111827"/>
  <rect x="270" y="48" width="42" height="42" rx="5" fill="#fff"/>
  <rect x="284" y="62" width="14" height="14" fill="#111827"/>
  <rect x="28" y="250" width="82" height="82" rx="8" fill="#111827"/>
  <rect x="48" y="270" width="42" height="42" rx="5" fill="#fff"/>
  <rect x="62" y="284" width="14" height="14" fill="#111827"/>
  <g fill="#111827">
    <rect x="136" y="34" width="18" height="18"/><rect x="172" y="34" width="18" height="18"/><rect x="208" y="34" width="18" height="18"/>
    <rect x="136" y="70" width="18" height="18"/><rect x="190" y="70" width="18" height="18"/><rect x="226" y="70" width="18" height="18"/>
    <rect x="34" y="136" width="18" height="18"/><rect x="70" y="136" width="18" height="18"/><rect x="124" y="136" width="18" height="18"/><rect x="178" y="136" width="18" height="18"/><rect x="232" y="136" width="18" height="18"/><rect x="286" y="136" width="18" height="18"/>
    <rect x="52" y="172" width="18" height="18"/><rect x="106" y="172" width="18" height="18"/><rect x="160" y="172" width="18" height="18"/><rect x="214" y="172" width="18" height="18"/><rect x="268" y="172" width="18" height="18"/><rect x="322" y="172" width="18" height="18"/>
    <rect x="34" y="208" width="18" height="18"/><rect x="88" y="208" width="18" height="18"/><rect x="142" y="208" width="18" height="18"/><rect x="196" y="208" width="18" height="18"/><rect x="250" y="208" width="18" height="18"/><rect x="304" y="208" width="18" height="18"/>
    <rect x="142" y="250" width="18" height="18"/><rect x="178" y="250" width="18" height="18"/><rect x="232" y="250" width="18" height="18"/><rect x="286" y="250" width="18" height="18"/>
    <rect x="124" y="286" width="18" height="18"/><rect x="160" y="286" width="18" height="18"/><rect x="214" y="286" width="18" height="18"/><rect x="268" y="286" width="18" height="18"/><rect x="322" y="286" width="18" height="18"/>
    <rect x="142" y="322" width="18" height="18"/><rect x="196" y="322" width="18" height="18"/><rect x="250" y="322" width="18" height="18"/><rect x="304" y="322" width="18" height="18"/>
  </g>
  <rect x="104" y="151" width="152" height="58" rx="18" fill="#fff" stroke="#111827" stroke-width="6"/>
  <text x="180" y="187" text-anchor="middle" font-family="Arial,sans-serif" font-size="22" font-weight="900" fill="#111827">KOLOLIDO</text>
</svg>
