<svg xmlns="http://www.w3.org/2000/svg" viewBox="0 0 640 360">
  <defs>
    <linearGradient id="bg" x1="0" x2="1" y1="1" y2="0">
      <stop stop-color="#273238"/>
      <stop offset=".52" stop-color="#9EDDE8"/>
      <stop offset="1" stop-color="#FFF1B4"/>
    </linearGradient>
  </defs>
  <rect width="640" height="360" rx="42" fill="url(#bg)"/>
  <rect x="78" y="82" width="484" height="196" rx="36" fill="#fff" opacity=".78"/>
  <path d="M144 196h100M144 238h204M144 154h156" stroke="#273238" stroke-width="16" stroke-linecap="round"/>
  <path d="M416 118l28 58 64 8-46 44 12 64-58-31-58 31 12-64-46-44 64-8z" fill="#ff9f2f"/>
  <path d="M410 130l25 52 57 7-41 40 11 57-52-28-52 28 11-57-41-40 57-7z" fill="#fff7d6" opacity=".72"/>
  <text x="44" y="62" fill="#fff" font-family="Arial, sans-serif" font-size="30" font-weight="900">自定义生成</text>
  <text x="44" y="324" fill="#fff" font-family="Arial, sans-serif" font-size="18" font-weight="800">your own style prompt</text>
</svg>
